{
	"asset":{
		"generator":"Khronos glTF Blender I/O v4.1.62",
		"version":"2.0"
	},
	"scene":0,
	"scenes":[
		{
			"name":"Scene",
			"nodes":[
				0,
				1,
				5,
				6
			]
		}
	],
	"nodes":[
		{
			"mesh":0,
			"name":"Cube",
			"scale":[
				3,
				1,
				0.5
			],
			"translation":[
				0,
				1.7356196641921997,
				0.2146555781364441
			]
		},
		{
			"mesh":1,
			"name":"\u041a\u0443\u0431.001",
			"translation":[
				-3.0000205039978027,
				-1.013167381286621,
				0.0010986244305968285
			]
		},
		{
			"mesh":2,
			"name":"\u041f\u043b\u043e\u0441\u043a\u043e\u0441\u0442\u044c",
			"rotation":[
				0,
				0,
				0.7071068286895752,
				0.7071068286895752
			],
			"scale":[
				1.119999885559082,
				1.0093669891357422,
				0.8944399356842041
			],
			"translation":[
				-0.15340039134025574,
				0,
				1.8917104005813599
			]
		},
		{
			"name":"\u041f\u0443\u0441\u0442\u044b\u0448\u043a\u0430.002",
			"rotation":[
				0.7071068286895752,
				0.7071068286895752,
				0,
				4.748536071019771e-07
			],
			"translation":[
				-5.294932179822354e-06,
				0,
				-4.000001430511475
			]
		},
		{
			"children":[
				3
			],
			"name":"\u041f\u0443\u0441\u0442\u044b\u0448\u043a\u0430.001",
			"rotation":[
				-0.7071068286895752,
				-0.7071068286895752,
				0,
				4.89255626234808e-07
			],
			"translation":[
				0.03854108974337578,
				-0.03886807709932327,
				0.03487207740545273
			]
		},
		{
			"children":[
				2,
				4
			],
			"name":"\u041f\u0443\u0441\u0442\u044b\u0448\u043a\u0430",
			"rotation":[
				-0.06764882802963257,
				-0.06764798611402512,
				-0.7038635015487671,
				0.7038633823394775
			],
			"translation":[
				-0.0035987182054668665,
				1.3114186525344849,
				0.04209274798631668
			]
		},
		{
			"mesh":3,
			"name":"\u041a\u0443\u0431",
			"scale":[
				1.9499999284744263,
				0.08497073501348495,
				1.4499999284744263
			],
			"translation":[
				-0.012755250558257103,
				0.9738597869873047,
				2.1732988357543945
			]
		}
	],
	"animations":[
		{
			"channels":[
				{
					"sampler":0,
					"target":{
						"node":1,
						"path":"translation"
					}
				}
			],
			"name":"\u041a\u0443\u0431.001Action",
			"samplers":[
				{
					"input":16,
					"interpolation":"LINEAR",
					"output":17
				}
			]
		},
		{
			"channels":[
				{
					"sampler":0,
					"target":{
						"node":4,
						"path":"translation"
					}
				}
			],
			"name":"\u041f\u0443\u0441\u0442\u044b\u0448\u043a\u0430.001Action",
			"samplers":[
				{
					"input":18,
					"interpolation":"LINEAR",
					"output":19
				}
			]
		},
		{
			"channels":[
				{
					"sampler":0,
					"target":{
						"node":6,
						"path":"translation"
					}
				},
				{
					"sampler":1,
					"target":{
						"node":6,
						"path":"scale"
					}
				}
			],
			"name":"\u041a\u0443\u0431Action",
			"samplers":[
				{
					"input":20,
					"interpolation":"LINEAR",
					"output":21
				},
				{
					"input":22,
					"interpolation":"STEP",
					"output":23
				}
			]
		}
	],
	"materials":[
		{
			"doubleSided":true,
			"name":"Material",
			"pbrMetallicRoughness":{
				"baseColorFactor":[
					0.09815580397844315,
					0.0031509287655353546,
					0.0157109834253788,
					1
				],
				"metallicFactor":0,
				"roughnessFactor":0.5
			}
		},
		{
			"doubleSided":true,
			"name":"\u0411\u0443\u043c\u0430\u0433\u0430",
			"pbrMetallicRoughness":{
				"baseColorFactor":[
					0.8005450963973999,
					0.6374953389167786,
					0.27210187911987305,
					1
				],
				"metallicFactor":0,
				"roughnessFactor":0.5
			}
		}
	],
	"meshes":[
		{
			"name":"Cube",
			"primitives":[
				{
					"attributes":{
						"POSITION":0,
						"NORMAL":1,
						"TEXCOORD_0":2
					},
					"indices":3,
					"material":0
				}
			]
		},
		{
			"name":"\u041a\u0443\u0431.001",
			"primitives":[
				{
					"attributes":{
						"POSITION":4,
						"NORMAL":5,
						"TEXCOORD_0":6
					},
					"indices":7
				}
			]
		},
		{
			"name":"\u041f\u043b\u043e\u0441\u043a\u043e\u0441\u0442\u044c.001",
			"primitives":[
				{
					"attributes":{
						"POSITION":8,
						"NORMAL":9,
						"TEXCOORD_0":10
					},
					"indices":11,
					"material":1
				}
			]
		},
		{
			"name":"\u041a\u0443\u0431.002",
			"primitives":[
				{
					"attributes":{
						"POSITION":12,
						"NORMAL":13,
						"TEXCOORD_0":14
					},
					"indices":15,
					"material":1
				}
			]
		}
	],
	"accessors":[
		{
			"bufferView":0,
			"componentType":5126,
			"count":25137,
			"max":[
				1.0000001192092896,
				-0.8346731662750244,
				8.413870811462402
			],
			"min":[
				-1.0000001192092896,
				-1.119363784790039,
				-9.344343185424805
			],
			"type":"VEC3"
		},
		{
			"bufferView":1,
			"componentType":5126,
			"count":25137,
			"type":"VEC3"
		},
		{
			"bufferView":2,
			"componentType":5126,
			"count":25137,
			"type":"VEC2"
		},
		{
			"bufferView":3,
			"componentType":5123,
			"count":92160,
			"type":"SCALAR"
		},
		{
			"bufferView":4,
			"componentType":5126,
			"count":24,
			"max":[
				1,
				1,
				1
			],
			"min":[
				-1,
				-1,
				-1
			],
			"type":"VEC3"
		},
		{
			"bufferView":5,
			"componentType":5126,
			"count":24,
			"type":"VEC3"
		},
		{
			"bufferView":6,
			"componentType":5126,
			"count":24,
			"type":"VEC2"
		},
		{
			"bufferView":7,
			"componentType":5123,
			"count":36,
			"type":"SCALAR"
		},
		{
			"bufferView":8,
			"componentType":5126,
			"count":133830,
			"max":[
				2.500063896179199,
				0.012136013247072697,
				2.5000007152557373
			],
			"min":[
				-2.49973726272583,
				-0.04022623226046562,
				-2.5000009536743164
			],
			"type":"VEC3"
		},
		{
			"bufferView":9,
			"componentType":5126,
			"count":133830,
			"type":"VEC3"
		},
		{
			"bufferView":10,
			"componentType":5126,
			"count":133830,
			"type":"VEC2"
		},
		{
			"bufferView":11,
			"componentType":5125,
			"count":290400,
			"type":"SCALAR"
		},
		{
			"bufferView":12,
			"componentType":5126,
			"count":34471,
			"max":[
				1.5000007152557373,
				1.5000003576278687,
				1.5000003576278687
			],
			"min":[
				-1.5000004768371582,
				-5.43878173828125,
				-4.4961395263671875
			],
			"type":"VEC3"
		},
		{
			"bufferView":13,
			"componentType":5126,
			"count":34471,
			"type":"VEC3"
		},
		{
			"bufferView":14,
			"componentType":5126,
			"count":34471,
			"type":"VEC2"
		},
		{
			"bufferView":15,
			"componentType":5123,
			"count":89856,
			"type":"SCALAR"
		},
		{
			"bufferView":16,
			"componentType":5126,
			"count":1,
			"max":[
				0.3333333333333333
			],
			"min":[
				0.3333333333333333
			],
			"type":"SCALAR"
		},
		{
			"bufferView":17,
			"componentType":5126,
			"count":1,
			"type":"VEC3"
		},
		{
			"bufferView":18,
			"componentType":5126,
			"count":1,
			"max":[
				2.5833333333333335
			],
			"min":[
				2.5833333333333335
			],
			"type":"SCALAR"
		},
		{
			"bufferView":19,
			"componentType":5126,
			"count":1,
			"type":"VEC3"
		},
		{
			"bufferView":20,
			"componentType":5126,
			"count":63,
			"max":[
				2.9166666666666665
			],
			"min":[
				0.3333333333333333
			],
			"type":"SCALAR"
		},
		{
			"bufferView":21,
			"componentType":5126,
			"count":63,
			"type":"VEC3"
		},
		{
			"bufferView":22,
			"componentType":5126,
			"count":2,
			"max":[
				2.9166666666666665
			],
			"min":[
				0.3333333333333333
			],
			"type":"SCALAR"
		},
		{
			"bufferView":23,
			"componentType":5126,
			"count":2,
			"type":"VEC3"
		}
	],
	"bufferViews":[
		{
			"buffer":0,
			"byteLength":301644,
			"byteOffset":0,
			"target":34962
		},
		{
			"buffer":0,
			"byteLength":301644,
			"byteOffset":301644,
			"target":34962
		},
		{
			"buffer":0,
			"byteLength":201096,
			"byteOffset":603288,
			"target":34962
		},
		{
			"buffer":0,
			"byteLength":184320,
			"byteOffset":804384,
			"target":34963
		},
		{
			"buffer":0,
			"byteLength":288,
			"byteOffset":988704,
			"target":34962
		},
		{
			"buffer":0,
			"byteLength":288,
			"byteOffset":988992,
			"target":34962
		},
		{
			"buffer":0,
			"byteLength":192,
			"byteOffset":989280,
			"target":34962
		},
		{
			"buffer":0,
			"byteLength":72,
			"byteOffset":989472,
			"target":34963
		},
		{
			"buffer":0,
			"byteLength":1605960,
			"byteOffset":989544,
			"target":34962
		},
		{
			"buffer":0,
			"byteLength":1605960,
			"byteOffset":2595504,
			"target":34962
		},
		{
			"buffer":0,
			"byteLength":1070640,
			"byteOffset":4201464,
			"target":34962
		},
		{
			"buffer":0,
			"byteLength":1161600,
			"byteOffset":5272104,
			"target":34963
		},
		{
			"buffer":0,
			"byteLength":413652,
			"byteOffset":6433704,
			"target":34962
		},
		{
			"buffer":0,
			"byteLength":413652,
			"byteOffset":6847356,
			"target":34962
		},
		{
			"buffer":0,
			"byteLength":275768,
			"byteOffset":7261008,
			"target":34962
		},
		{
			"buffer":0,
			"byteLength":179712,
			"byteOffset":7536776,
			"target":34963
		},
		{
			"buffer":0,
			"byteLength":4,
			"byteOffset":7716488
		},
		{
			"buffer":0,
			"byteLength":12,
			"byteOffset":7716492
		},
		{
			"buffer":0,
			"byteLength":4,
			"byteOffset":7716504
		},
		{
			"buffer":0,
			"byteLength":12,
			"byteOffset":7716508
		},
		{
			"buffer":0,
			"byteLength":252,
			"byteOffset":7716520
		},
		{
			"buffer":0,
			"byteLength":756,
			"byteOffset":7716772
		},
		{
			"buffer":0,
			"byteLength":8,
			"byteOffset":7717528
		},
		{
			"buffer":0,
			"byteLength":24,
			"byteOffset":7717536
		}
	],
	"buffers":[
		{
			"byteLength":7717560,
			"uri":"book_background.bin"
		}
	]
}
