{
	"asset":{
		"generator":"Khronos glTF Blender I/O v4.1.62",
		"version":"2.0"
	},
	"scene":0,
	"scenes":[
		{
			"name":"Scene",
			"nodes":[
				0,
				1
			]
		}
	],
	"nodes":[
		{
			"mesh":0,
			"name":"\u0421\u0442\u0440\u0430\u043d\u0438\u0446\u044b",
			"scale":[
				1.2790000438690186,
				1,
				0.940000057220459
			],
			"translation":[
				0,
				-0.12435168772935867,
				-0.19928035140037537
			]
		},
		{
			"mesh":1,
			"name":"\u041e\u0431\u043b\u043e\u0436\u043a\u0430",
			"scale":[
				1.3481107950210571,
				0.1478111743927002,
				1
			],
			"translation":[
				0.016243208199739456,
				0.01028465386480093,
				-0.1421896517276764
			]
		}
	],
	"materials":[
		{
			"doubleSided":true,
			"name":"\u041b\u0438\u0441\u0442",
			"pbrMetallicRoughness":{
				"baseColorFactor":[
					0.800000011920929,
					0.6814540028572083,
					0.43616151809692383,
					1
				],
				"metallicFactor":0,
				"roughnessFactor":0.44999998807907104
			}
		},
		{
			"doubleSided":true,
			"name":"\u043e\u0431\u043b\u043e\u0436\u043a\u0430",
			"pbrMetallicRoughness":{
				"baseColorFactor":[
					0.038706906139850616,
					0.0024378281086683273,
					0.004588280338793993,
					1
				],
				"metallicFactor":0,
				"roughnessFactor":0.75
			}
		}
	],
	"meshes":[
		{
			"name":"\u041f\u043b\u043e\u0441\u043a\u043e\u0441\u0442\u044c",
			"primitives":[
				{
					"attributes":{
						"POSITION":0,
						"NORMAL":1,
						"TEXCOORD_0":2
					},
					"indices":3,
					"material":0
				}
			]
		},
		{
			"name":"\u041a\u0443\u0431",
			"primitives":[
				{
					"attributes":{
						"POSITION":4,
						"NORMAL":5,
						"TEXCOORD_0":6
					},
					"indices":7,
					"material":1
				}
			]
		}
	],
	"accessors":[
		{
			"bufferView":0,
			"componentType":5126,
			"count":289,
			"max":[
				1,
				0,
				1
			],
			"min":[
				-1,
				0,
				-1
			],
			"type":"VEC3"
		},
		{
			"bufferView":1,
			"componentType":5126,
			"count":289,
			"type":"VEC3"
		},
		{
			"bufferView":2,
			"componentType":5126,
			"count":289,
			"type":"VEC2"
		},
		{
			"bufferView":3,
			"componentType":5123,
			"count":1536,
			"type":"SCALAR"
		},
		{
			"bufferView":4,
			"componentType":5126,
			"count":1606,
			"max":[
				1.0251519680023193,
				1.2244535684585571,
				1.0254180431365967
			],
			"min":[
				-1.0251141786575317,
				-1.2244532108306885,
				-1.050923466682434
			],
			"type":"VEC3"
		},
		{
			"bufferView":5,
			"componentType":5126,
			"count":1606,
			"type":"VEC3"
		},
		{
			"bufferView":6,
			"componentType":5126,
			"count":1606,
			"type":"VEC2"
		},
		{
			"bufferView":7,
			"componentType":5123,
			"count":2412,
			"type":"SCALAR"
		}
	],
	"bufferViews":[
		{
			"buffer":0,
			"byteLength":3468,
			"byteOffset":0,
			"target":34962
		},
		{
			"buffer":0,
			"byteLength":3468,
			"byteOffset":3468,
			"target":34962
		},
		{
			"buffer":0,
			"byteLength":2312,
			"byteOffset":6936,
			"target":34962
		},
		{
			"buffer":0,
			"byteLength":3072,
			"byteOffset":9248,
			"target":34963
		},
		{
			"buffer":0,
			"byteLength":19272,
			"byteOffset":12320,
			"target":34962
		},
		{
			"buffer":0,
			"byteLength":19272,
			"byteOffset":31592,
			"target":34962
		},
		{
			"buffer":0,
			"byteLength":12848,
			"byteOffset":50864,
			"target":34962
		},
		{
			"buffer":0,
			"byteLength":4824,
			"byteOffset":63712,
			"target":34963
		}
	],
	"buffers":[
		{
			"byteLength":68536,
			"uri":"book1.bin"
		}
	]
}
